<svg xmlns="http://www.w3.org/2000/svg" width="409.822" height="301.802" viewBox="0 0 409.822 301.802"><defs><style>.a{fill:#fff;}.b{fill:#e2e2e2;}.c{fill:#8fb0f0;}.d{fill:#5b82e0;}.e{fill:#fce0cd;}.f{fill:#645d5c;}.g{fill:#efc0a0;}.h{fill:#b3b3b3;}.i{fill:#a0a0a0;}</style></defs><path class="a" d="M105.288,228.429v-8.5c-5.742-2.194-9.846-3.636-16.619-6.349-.443,3.757-.956,7.263-1.42,10.319-2.1,13.81-8.261,22.174-15.25,26.75-8.018,5.25-28.9,5.274-41.932,2.905l-3.343-.608c.4,2.1.771,4,1.117,5.643,4.09,4.36,9.77,6.7,18.768,7.657,16.757,1.927,38.167,2.852,58.679,3.8V228.429Z"/><path class="b" d="M104.148,217.363c-4.694-1.774-9.4-3.508-14.065-5.362a2.014,2.014,0,0,0-2.46,1.4,2.047,2.047,0,0,0,1.4,2.46c4.663,1.854,9.371,3.588,14.064,5.362a2.016,2.016,0,0,0,2.46-1.4,2.043,2.043,0,0,0-1.4-2.46Z"/><path class="b" d="M12.616,253.128C9.237,229.719,5.073,193.075.1,161.54c-.425-2.735.475-3.408,2.8-3.6,7.059-.574,9.053,7.492,9.814,11.56,2.561,13.693,11.007,69.337,15.128,89.09,4.093,4.355,9.773,6.694,18.761,7.654,15.83,1.816,35.8,2.743,55.244,3.636h3.443v15.67H43.274c-18.671,0-26.239-6.281-28.589-19.36C14.031,262.569,13.342,258.154,12.616,253.128Z"/><path class="a" d="M378.562,264.52a30.8,30.8,0,0,0,3.06-3.286l.639-.656c1.335-6.569,3.064-16.449,4.884-27.306-7.836.762-18.534,1.805-18.534,1.805a113.6,113.6,0,0,1-16.39-.77c-7.233-.912-15.3-3.682-20.061-5.51-1.506-.579-2.682-1.063-3.4-1.364-2.539,1.46-4.633,2.631-6.014,3.373a2.017,2.017,0,0,1-2.641-.664c-.424-.646-.983-1.514-1.635-2.538a88.9,88.9,0,0,1-16.941,7.5c0,13.3,0,27.6,0,38.932h7.2c16.981-.675,48.582-2.08,58.842-3.992A23.058,23.058,0,0,0,378.562,264.52Z"/><path class="a" d="M341.9,119.689c6.388-5.595,16.261-9.879,25.089-12.251a32.364,32.364,0,0,1-10.71-4.886q-.453-.317-.9-.654l-.7-.451c-4.866,1.973-10.342,4.348-13.826,6.185l-.7,3.57.736,3.875Z"/><path class="c" d="M332.16,228.8c-1.506-.579-2.682-1.063-3.4-1.364-2.539,1.46-4.633,2.631-6.014,3.373a2.017,2.017,0,0,1-2.641-.664c-3.017-4.593-12.9-20.5-14.58-23.914,10.177-5.339,17.262-9.567,26.581-15.429a8.817,8.817,0,0,0,2.761-2.806l-1.586-3.422c-1.875-5.046-4.341-20.969-4.4-24.229a38.745,38.745,0,0,1,.358-6.817c.743-6.5,3.181-13.951,4.982-18.923a71.142,71.142,0,0,1,6.445-13.776c7.895-7.713,22.565-13.153,33.17-14.887,2.657,3.957,5.291,7.874,5.291,7.874l3.373,5.019c6.86,10.8,9.109,22.5,6.117,39.874-.667,3.87-3.9,17.74-3.249,23.448a269.7,269.7,0,0,0,4.545,27.158l.69,2.928c-1.14,7.011-2.319,14.214-3.462,21.032-7.836.762-18.534,1.805-18.534,1.805a113.6,113.6,0,0,1-16.39-.77C344.988,233.4,336.924,230.625,332.16,228.8Z"/><path class="d" d="M377.131,145.566c-.506,7.959-1.457,15.9-2.69,23.773a119.662,119.662,0,0,1-4.375,19.744,33.326,33.326,0,0,1-6.941,12.423c-1.758,1.878,1.065,4.712,2.828,2.828,5.558-5.938,8.311-13.874,10.075-21.679a231.734,231.734,0,0,0,3.8-23.311c.554-4.58,1.012-9.173,1.3-13.778.163-2.57-3.838-2.56-4,0Z"/><path class="d" d="M332.675,182.644c-.357-1.284-.722-2.844-1.079-4.539l-.1.3a13.4,13.4,0,0,1-2.371,3.734L318.142,193.9l-5.636,8.577c6.791-3.748,12.558-7.245,19.6-11.676a8.817,8.817,0,0,0,2.761-2.806l-1.586-3.422C333.086,184.04,332.882,183.388,332.675,182.644Z"/><path class="d" d="M346.059,144.878c.93-5.552,3.291-11.208,7.575-15a12.79,12.79,0,0,1,8.628-3.266,15.752,15.752,0,0,1,7.2,1.447c2.571,1.31,5.69,3.963,6.077,7.038a2.065,2.065,0,0,0,2,2,2.012,2.012,0,0,0,2-2c-.9-7.155-8.017-11.7-14.7-12.384a17.626,17.626,0,0,0-11.563,2.454,22.8,22.8,0,0,0-7.225,7.862,32.485,32.485,0,0,0-3.843,10.789,2.06,2.06,0,0,0,1.4,2.46,2.015,2.015,0,0,0,2.46-1.4Z"/><path class="e" d="M327.205,46.988q-3.394-2.553-6.565-5.386a36.285,36.285,0,0,0-1.134,11.337c-.157,5.2-.355,12.42-5.115,15a4.852,4.852,0,0,0-2.21,2.219c-1.14,2.589,1.091,3.751,2.473,5.244a7.97,7.97,0,0,1,1.808,3.376,49.345,49.345,0,0,0,1.054,7.5,20.972,20.972,0,0,0,1.693,5.028,9.931,9.931,0,0,0,5.467,5.046c3.938,1.443,9.328,1.959,12.818,1.016a1.729,1.729,0,0,1,2.043,1.02,41.4,41.4,0,0,1,2.094,5.349l1.006,3c3.877-1.9,9.215-4.161,13.715-5.946,2.46-2.507,3.359-6.577,3.224-9.354-.21-4.312-1.877-8.472-3.444-12.548,5.111-2.319,8.022-6.112,8.308-11.748.109-2.146-.673-4.755-2.381-6a4.958,4.958,0,0,0-4.193-.653,5.618,5.618,0,0,0-1,.352l-2.978-.132a17.975,17.975,0,0,1-6.28-1.8A101.536,101.536,0,0,1,327.205,46.988Z"/><path class="f" d="M357.15,17.062q-2.388-.183-5.027-.147a43.265,43.265,0,0,0-12.285,2.3c-8.043,2.765-14.63,9.318-18.088,16.592a30.833,30.833,0,0,0-1.854,5.139l.925.822A101.605,101.605,0,0,0,347.6,58.9a17.975,17.975,0,0,0,6.28,1.8l2.978.132a5.618,5.618,0,0,1,1-.352,4.958,4.958,0,0,1,4.193.653c1.708,1.249,2.49,3.858,2.381,6-.286,5.636-3.2,9.429-8.308,11.748,1.567,4.076,3.234,8.236,3.444,12.548.154,3.178-1.045,8.049-4.388,10.333a32.863,32.863,0,0,0,28.334,5.556,11.572,11.572,0,0,0,8.083-9.113,35.491,35.491,0,0,0-.213-9.86c-.772-4.853-2.088-10.3.3-22.845.725-3.809,1.578-8.586,1.317-12.908a34.933,34.933,0,0,0-7.5-19.61C378.04,24.015,370.348,18.072,357.15,17.062Z"/><path class="f" d="M324.924,60.356c-.591,1.5-.624,5.063,2.115,5.61,3.66.3,4.248-3.96,3.2-6.08C329.384,58.149,326.483,57.2,324.924,60.356Z"/><path class="a" d="M356.778,79.494a3.725,3.725,0,0,0-3.859,3.7A3.661,3.661,0,0,0,357,86.724c2.4-.073,3.923-1.623,3.857-3.77A3.722,3.722,0,0,0,356.778,79.494Z"/><path class="g" d="M316.915,83.987a14.233,14.233,0,0,0,7.018-1.455,2.017,2.017,0,0,0,.718-2.736,2.045,2.045,0,0,0-2.737-.718c-.237.128-.479.244-.727.35l.478-.2a10.906,10.906,0,0,1-2.693.7l.531-.072a17.768,17.768,0,0,1-2.588.131,2,2,0,0,0,0,4Z"/><path class="b" d="M396.213,263.059c3.545-22.6,8.037-63.494,13.507-98.2.425-2.733-.474-3.4-2.793-3.593-7.052-.574-9.044,7.485-9.8,11.549-2.5,13.344-10.586,66.562-14.8,87.485l-.7.934c-4.537,5.58-8.585,7.456-14.048,8.806-10.26,1.912-41.861,3.317-58.842,3.992h-7.2v14.723h65.059c18.654,0,26.214-6.275,28.562-19.342C395.5,267.506,395.849,265.379,396.213,263.059Z"/><path class="b" d="M374.239,289.389l2.527,10.936a2.016,2.016,0,0,0,2.46,1.4,2.044,2.044,0,0,0,1.4-2.46L378.1,288.326a2.016,2.016,0,0,0-2.46-1.4,2.044,2.044,0,0,0-1.4,2.46Z"/><path class="e" d="M308.524,211.493c2.967,4.975,7.294,11.944,9.989,16.175-.773.381-1.312.651-1.312.651a88.973,88.973,0,0,1-12.156,5.566l-3.515,1.258V206.425h4.091C306.134,207.427,307.192,209.259,308.524,211.493Z"/><path class="a" d="M54.537,93.464c-5.568-2.679-11.01-4.833-13.8-5.854l.747-2.361c.238-.754.5-1.792.719-2.8l.564.128c9.083,2.938,22.942,7.588,31.4,12.015a1.706,1.706,0,0,1,.788.646,1.385,1.385,0,0,1,.075.982c-.491,1.815-.5,1.785-1.029,3.924l4.976,4.143a23.188,23.188,0,0,1,.343,4.575q.045,5.665.091,11.31c-1.4-3.341-2.851-6.61-4.321-9.772a30.791,30.791,0,0,0-5.91-7.85C65.9,99.4,60.155,96.167,54.537,93.464Z"/><path class="e" d="M129.746,113.059a5.837,5.837,0,0,1-1.142,1.382,9.581,9.581,0,0,1-3.713,1.433c-2.85.755-5.787,1.847-7.681,3.851A9.328,9.328,0,0,0,115,127.594l-3.573,3.973c3.178,2.961,7.56,7.146,10.734,10.144,3.862-.806,7.681-1.715,11.486-2.657a5.819,5.819,0,0,0,3.244-1.56,20.918,20.918,0,0,0,3.737-4.3c.338-.483.894-1.311,1.54-2.3l.559-.2c3.056-1.088,8.233-3.029,12.674-4.137a8.211,8.211,0,0,0,1.647-.7,2.942,2.942,0,0,0,1.433-2.742c-.167-1.7-1.26-2.167-3.389-2.347a19.723,19.723,0,0,0-7.368.676l-.657.17a2.135,2.135,0,0,0-.85-1.682c-1.067-.739-2.783,0-3.357.43-.59.441-1.115.836-1.589,1.2l-4.612-4.734a26.353,26.353,0,0,0,3.043-5.282,6.308,6.308,0,0,0,.687-2.987c-.081-1.112-.34-1.732-1.237-2a4.582,4.582,0,0,0-3.287.35,16.753,16.753,0,0,0-5.74,5.558C130,112.666,129.872,112.863,129.746,113.059Z"/><path class="e" d="M149.182,178.432a3.927,3.927,0,0,0,2.476-1.261,3.027,3.027,0,0,0,.205-2.98,2.537,2.537,0,0,0-1.916-1.465l-1-.18.121-.2a3.428,3.428,0,0,0,.247-2.214,3,3,0,0,0-2.647-2.318c-7-1.224-14.568-2.138-21.644-3.285a19.262,19.262,0,0,0,4.89-6.957,2.7,2.7,0,0,0-.144-2.752,2.311,2.311,0,0,0-1.83-.948,5.285,5.285,0,0,0-2.8.708c-3.806,2.19-10.739,6.066-13.029,7.6a12.655,12.655,0,0,0-3.623,3.488h-2.721l.043.051a1.345,1.345,0,0,1,.283.8c.536,7.876.4,14.935.263,22.664,5.063,1.52,11.767,1.468,16.442,1.162,1.644-.107,13.209-1.187,18-1.85,1.707-.236,3.712-.634,3.011-4.072,1.318-.172,2.547-.344,3.614-.509a1.835,1.835,0,0,0,1.515-2.04,2.877,2.877,0,0,0-1.378-2.251l-1.465-.794,2.863-.359C149.033,178.455,149.108,178.444,149.182,178.432Z"/><path class="h" d="M115.572,135.47c-2.843-2.691-5.538-5.223-7.038-6.547a2.1,2.1,0,0,0-2.717-.064c-.624.5-1.413,1.138-2.315,1.867-4.1,3.314-10.5,8.54-14.221,11.665l-1.629,1.5a105.688,105.688,0,0,1,3.239,17.617l.23,3.772.26.006c.606.016,1.209.026,1.813.038.482.01.965.021,1.448.028.629.01,1.263.012,1.9.017.456,0,.91.009,1.369.01.733,0,1.476-.007,2.218-.013.365,0,.723,0,1.09-.008,1.119-.016,2.252-.041,3.408-.077a2.435,2.435,0,0,1,.3.011c.03,0,.059.01.089.014a1.648,1.648,0,0,1,.2.041.943.943,0,0,1,.09.029,1.278,1.278,0,0,1,.185.081c.023.013.046.024.068.038a1.009,1.009,0,0,1,.214.173h2.725a12.655,12.655,0,0,1,3.623-3.488c.588-.393,1.484-.943,2.552-1.577v-2.974c3.473-3.99,6.365-7.626,9.529-11.607a2.031,2.031,0,0,0-.325-2.7C121.772,141.36,118.589,138.325,115.572,135.47Z"/><path class="g" d="M124.193,129.746a4.266,4.266,0,0,1,.894-.518l-.478.2a4.633,4.633,0,0,1,1.078-.29l-.532.072a5.091,5.091,0,0,1,1.311,0l-.531-.072a6.024,6.024,0,0,1,1.129.277,2,2,0,0,0,2.258-2.938,2.217,2.217,0,0,0-1.195-.919,8.035,8.035,0,0,0-1.7-.353,5.077,5.077,0,0,0-1.238,0,6.1,6.1,0,0,0-3.016,1.087,1.5,1.5,0,0,0-.562.515,1.515,1.515,0,0,0-.358.68,2.047,2.047,0,0,0,.2,1.541,2.017,2.017,0,0,0,1.2.919,1.934,1.934,0,0,0,1.541-.2Z"/><path class="g" d="M126.265,135.6a39.289,39.289,0,0,1,5.019-9.885,25.526,25.526,0,0,1,1.623-2.152c.06-.07.373-.389.219-.255s.222-.14.306-.184a.55.55,0,0,1,.078-.03c-.2.02.13,0,.141.006-.217-.078.073.031.12.058-.237-.135.248.1-.071-.014l.059.064c.079.086.08.084,0,0-.045,0-.1-.065.019.073-.012-.013-.129-.329-.066-.119s-.016-.162-.014-.18a7.617,7.617,0,0,0-.025.786c-.038.916-.079,1.833-.14,2.747s-.145,1.821-.257,2.728l-.036.291c.028-.224.008-.057-.01.069q-.052.372-.108.744c-.09.6-.188,1.205-.288,1.806a2.06,2.06,0,0,0,1.4,2.46,2.015,2.015,0,0,0,2.46-1.4c.358-2.157.675-4.323.829-6.507s.709-4.882-1.127-6.509a4.315,4.315,0,0,0-4.069-.913,5.426,5.426,0,0,0-2.7,2.023,45.057,45.057,0,0,0-4.007,5.913,45.776,45.776,0,0,0-3.207,7.317,2,2,0,0,0,3.857,1.064Z"/><path class="g" d="M137.7,127.813a27.863,27.863,0,0,1,2.537-2.783c.438-.41.892-.8,1.356-1.182.259-.212.521-.42.784-.627a1.468,1.468,0,0,1,.127-.1q.286-.221.575-.438c.3-.223.587-.461.9-.665.086-.057.176-.108.267-.157.052-.028.106-.053.158-.08.271-.145-.117.029-.122.047.018-.064.387-.13.466-.151s.517-.077.231-.062.165.016.239.01c.281-.024-.386-.014-.11-.014.149,0,.231.163.091.017s-.082-.022.01.034c0,0-.3-.235-.139-.086s-.119-.14-.1-.143.115.252.133.233c-.038.041-.093-.406-.079-.165a.991.991,0,0,0,.053.195c.05.162-.049.142.008,0q-.029-.231-.015-.063c0,.046,0,.091,0,.137,0,.066,0,.138,0,.2.012.393-.017-.129.029-.13,0,0-.074.35-.083.383a1.268,1.268,0,0,0-.1.31c0-.011.232-.508.095-.228-.031.063-.06.128-.091.192a48.067,48.067,0,0,1-2.643,4.522,2.02,2.02,0,0,0,.718,2.737,2.042,2.042,0,0,0,2.736-.718,43.923,43.923,0,0,0,2.69-4.621,5.072,5.072,0,0,0-.231-5.322c-1.448-1.875-3.928-1.713-5.858-.75a12.882,12.882,0,0,0-1.979,1.419c-.7.54-1.405,1.083-2.08,1.66a26.893,26.893,0,0,0-3.4,3.551,2.047,2.047,0,0,0,0,2.828,2.021,2.021,0,0,0,2.828,0Z"/><path class="f" d="M143.627,148.517q12.441,19.483,25.261,38.72c1.416,2.136,4.882.135,3.454-2.019q-12.779-19.263-25.261-38.719c-1.381-2.164-4.845-.16-3.454,2.018Z"/><path class="h" d="M24.03,139.738a87.25,87.25,0,0,1,1.181-17.911c1.79-10.67,4.15-20.16,11.68-30.83l.3-.27a29.343,29.343,0,0,0,2.12-3.62c3.37,1.11,22.63,8.5,29.87,15.44a30.791,30.791,0,0,1,5.91,7.85c7.36,15.83,14.31,34.36,15.8,51.11l.234,3.776c4.433.113,8.785.144,13.5,0a1.259,1.259,0,0,1,1.473,1.233c.6,8.812.359,16.6.215,25.451a1.523,1.523,0,0,1-1.2,1.41c-5.425.527-10.436.925-15.367,1.14.25,10.51-1.29,21.461-2.488,29.383-2.1,13.81-8.26,22.17-15.25,26.75-8.02,5.25-28.9,5.27-41.93,2.9l-3.35-.6c-1.92-10.15-4.4-25.07-6.79-39.67l1.14-6.72c1.61-10.85,3.5-23.48,3.8-27.91a163.8,163.8,0,0,0,.36-20.71C24.745,150.9,24.2,145.234,24.03,139.738Z"/><path class="f" d="M80.539,3.788c11.5,5.073,16.376,13.817,17.188,15.764a28.524,28.524,0,0,1,2.636,11.655,15.15,15.15,0,0,0-9.818-2.237c-8.274.943-15.557,5.732-20.372,10.077-2.7,2.634-3.421,4.591-6.033,8.65a7.221,7.221,0,0,0-3.76-3.162,5.084,5.084,0,0,0-4.336.38c-1.834,1.161-2.814,3.777-2.85,5.98a12.942,12.942,0,0,0,2.874,8.78c-.119.283-.189.447-.189.447-2.01,4.737-9.118,12-14.74,14.68-1.825-3.133-4.882-6.154-6.809-8.559a41.931,41.931,0,0,1-9.319-30.1,41.354,41.354,0,0,1,8.278-20.61C43.763,2.141,54.685.441,61.372.059A41.706,41.706,0,0,1,80.065,3.582Q80.3,3.684,80.539,3.788Z"/><path class="e" d="M106.467,57.581a4.976,4.976,0,0,0-2.109-2.423c-4.7-2.962-4.4-10.362-4.2-15.7a40.012,40.012,0,0,0,.119-8.32,15.25,15.25,0,0,0-9.728-2.171c-8.274.943-15.557,5.732-20.372,10.077-2.7,2.634-3.421,4.591-6.033,8.65a12.7,12.7,0,0,0-1.279-1.6,5.894,5.894,0,0,0-2.481-1.564,5.084,5.084,0,0,0-4.336.38c-1.834,1.161-2.814,3.777-2.85,5.98a12.942,12.942,0,0,0,2.874,8.78c-.119.283-.189.447-.189.447-2.01,4.736-9.117,12-14.74,14.68a9.806,9.806,0,0,1,1.525,4.565,16.6,16.6,0,0,1-.439,2.983c.25.091.485.193.732.286,8.629,2.793,21.433,7.1,29.9,11.289l1.193-3.09a53.879,53.879,0,0,0,2.485-6.247,1.775,1.775,0,0,1,2.161-.9c3.507,1.2,9.058,1.047,13.187-.159a10.182,10.182,0,0,0,5.942-4.789A21.507,21.507,0,0,0,99.9,73.709a50.637,50.637,0,0,0,1.594-7.6,8.166,8.166,0,0,1,2.082-3.331C105.093,61.345,107.456,60.309,106.467,57.581Z"/><path class="f" d="M94.1,46.679c.5,1.574.29,5.224-2.551,5.595-3.765.057-4.074-4.344-2.858-6.442C89.687,44.114,92.72,43.343,94.1,46.679Z"/><path class="g" d="M100.81,67.366c-.54-.027-1.078-.073-1.614-.142l.532.072a12.676,12.676,0,0,1-3.211-.832l.478.2a9.133,9.133,0,0,1-1.244-.65,2.02,2.02,0,0,0-2.737.718,2.042,2.042,0,0,0,.718,2.736,14.607,14.607,0,0,0,7.078,1.9,2.014,2.014,0,0,0,2-2,2.045,2.045,0,0,0-2-2Z"/><path class="i" d="M40.421,117.272c1.84-2.607,6.058-3.632,9.05-3.742,3.286-.121,6.735.368,9.4,2.442,5.728,4.453,6.477,12.932,7.155,19.579.692,6.783,1.493,13.564,2.472,20.313.329,2.271.526,4.541,1.95,6.441a11.375,11.375,0,0,0,9.314,4.57c4.689.183,9.378.382,14.07.464q3.552.063,7.1.022a18.233,18.233,0,0,0,3.215-.067c2.684-.541.388.159.461-.039l-.5-.544.014.29a7.165,7.165,0,0,0,.125,2.175c.245,4.812.258,9.631.2,14.448-.031,2.453-.122,4.908-.121,7.361a2.537,2.537,0,0,0,.01.764.937.937,0,0,1,.3-.329c-.54.013-1.091.1-1.628.153q-1.819.168-3.641.32a196.474,196.474,0,0,1-27.146.53c-7.326-.409-15.66-.645-22.108-4.617a22.885,22.885,0,0,1-7.044-7.061c-2.256-3.646-3.245-8.218-4.177-12.358a147.082,147.082,0,0,1-3.048-27.428c-.077-2.3-.123-4.593-.151-6.891-.032-2.572-4.032-2.579-4,0a193.756,193.756,0,0,0,2.288,30.014,86.95,86.95,0,0,0,3.4,13.746A24.693,24.693,0,0,0,44.063,188a25.415,25.415,0,0,0,10.21,5.965,54.883,54.883,0,0,0,11.448,1.978,185.054,185.054,0,0,0,29.007.3c2.532-.167,5.061-.373,7.589-.6,2.21-.2,5.026-.068,5.821-2.68a13.81,13.81,0,0,0,.218-3.666q.036-2.016.069-4.032c.041-2.627.068-5.254.051-7.882-.017-2.575-.077-5.15-.2-7.723-.1-2.172.232-5.338-2.357-6.179a9.557,9.557,0,0,0-3.154-.145q-2.035.043-4.072.048c-2.426.006-4.852-.03-7.278-.091-2.468-.062-4.936-.151-7.4-.246-2.064-.079-4.709.148-6.49-.4a7.959,7.959,0,0,1-3.813-2.615,6.145,6.145,0,0,1-1-2.931c-1.1-6.606-1.809-13.295-2.514-19.951-.837-7.894-1.44-16.711-7.2-22.8-5.4-5.713-14.892-6.1-21.646-2.742a11.552,11.552,0,0,0-4.379,3.654c-1.487,2.108,1.98,4.108,3.454,2.019Z"/><path class="f" d="M168.548,188.258h57.434c2.574,0,2.578-4,0-4H168.548c-2.574,0-2.578,4,0,4Z"/><path class="b" d="M107.288,289.728v-86.57c0-2.574-4-2.578-4,0v86.57c0,2.574,4,2.578,4,0Z"/><path class="b" d="M299.53,203.156v86.572c0,2.574,4,2.578,4,0V203.156c0-2.574-4-2.578-4,0Z"/><rect class="b" x="97.38" y="193.151" width="212.055" height="13.274" rx="2.18"/><path class="b" d="M31.758,285.124l-2.529,10.947a2,2,0,0,0,3.857,1.064l2.529-10.947a2,2,0,1,0-3.857-1.064Z"/><path class="i" d="M86.5,148.106a67.968,67.968,0,0,1,2.733,15.118,2.046,2.046,0,0,0,2,2,2.018,2.018,0,0,0,2-2,72.753,72.753,0,0,0-2.876-16.181c-.736-2.46-4.6-1.412-3.857,1.063Z"/></svg>